HIERARCHY
ROOT Hips
{
    OFFSET   0.000000   0.000000   0.000000
    CHANNELS 6 Xposition Yposition Zposition Zrotation Xrotation Yrotation
    JOINT Chest
    {
        OFFSET   0.000000   8.007240   0.000000
        CHANNELS 3 Zrotation Xrotation Yrotation
        JOINT Chest2
        {
            OFFSET   0.000000  22.077100   0.000000
            CHANNELS 3 Zrotation Xrotation Yrotation
            JOINT Neck
            {
                OFFSET   0.000000  23.254800   0.000000
                CHANNELS 3 Zrotation Xrotation Yrotation
                JOINT Head
                {
                    OFFSET   0.000000  14.370000   1.956600
                    CHANNELS 3 Zrotation Xrotation Yrotation
                    End Site
                    {
                        OFFSET   0.000000  19.566000   0.000000
                    }
                }
            }
            JOINT LeftCollar
            {
                OFFSET   3.911900  19.017000  -0.467064
                CHANNELS 3 Zrotation Xrotation Yrotation
                JOINT LeftShoulder
                {
                    OFFSET  10.383700   0.000000   0.000000
                    CHANNELS 3 Zrotation Xrotation Yrotation
                    JOINT LeftElbow
                    {
                        OFFSET  26.662100   0.001476   0.000517
                        CHANNELS 3 Zrotation Xrotation Yrotation
                        JOINT LeftWrist
                        {
                            OFFSET  28.869000  -0.000025  -0.000106
                            CHANNELS 3 Zrotation Xrotation Yrotation
                            JOINT LeftFinger0
                            {
                                OFFSET   2.044660  -2.323460   3.252850
                                CHANNELS 3 Zrotation Xrotation Yrotation
                                JOINT LeftFinger01
                                {
                                    OFFSET   3.088130   0.000000   0.000000
                                    CHANNELS 3 Zrotation Xrotation Yrotation
                                    JOINT LeftFinger02
                                    {
                                        OFFSET   2.639460   0.000000   0.000000
                                        CHANNELS 3 Zrotation Xrotation Yrotation
                                        End Site
                                        {
                                            OFFSET   2.582190   0.000000   0.000000
                                        }
                                    }
                                }
                            }
                            JOINT LeftFinger1
                            {
                                OFFSET   8.364480   0.000000   3.252850
                                CHANNELS 3 Zrotation Xrotation Yrotation
                                JOINT LeftFinger11
                                {
                                    OFFSET   4.646930   0.000000   0.000000
                                    CHANNELS 3 Zrotation Xrotation Yrotation
                                    JOINT LeftFinger12
                                    {
                                        OFFSET   2.323460   0.000000   0.000000
                                        CHANNELS 3 Zrotation Xrotation Yrotation
                                        End Site
                                        {
                                            OFFSET   2.273050   0.000000   0.000000
                                        }
                                    }
                                }
                            }
                            JOINT LeftFinger2
                            {
                                OFFSET   8.364490   0.000015   1.078090
                                CHANNELS 3 Zrotation Xrotation Yrotation
                                JOINT LeftFinger21
                                {
                                    OFFSET   5.111620   0.000000   0.000000
                                    CHANNELS 3 Zrotation Xrotation Yrotation
                                    JOINT LeftFinger22
                                    {
                                        OFFSET   2.788160   0.000016   0.000000
                                        CHANNELS 3 Zrotation Xrotation Yrotation
                                        End Site
                                        {
                                            OFFSET   2.727660   0.000000   0.000000
                                        }
                                    }
                                }
                            }
                            JOINT LeftFinger3
                            {
                                OFFSET   7.899780   0.000017  -1.078090
                                CHANNELS 3 Zrotation Xrotation Yrotation
                                JOINT LeftFinger31
                                {
                                    OFFSET   4.646930   0.000000   0.000000
                                    CHANNELS 3 Zrotation Xrotation Yrotation
                                    JOINT LeftFinger32
                                    {
                                        OFFSET   2.323470   0.000000   0.000000
                                        CHANNELS 3 Zrotation Xrotation Yrotation
                                        End Site
                                        {
                                            OFFSET   2.273050   0.000000   0.000000
                                        }
                                    }
                                }
                            }
                            JOINT LeftFinger4
                            {
                                OFFSET   7.435090   0.000000  -3.252850
                                CHANNELS 3 Zrotation Xrotation Yrotation
                                JOINT LeftFinger41
                                {
                                    OFFSET   3.717550   0.000000   0.000000
                                    CHANNELS 3 Zrotation Xrotation Yrotation
                                    JOINT LeftFinger42
                                    {
                                        OFFSET   1.858770   0.000000   0.000000
                                        CHANNELS 3 Zrotation Xrotation Yrotation
                                        End Site
                                        {
                                            OFFSET   1.818440   0.000000   0.000000
                                        }
                                    }
                                }
                            }
                        }
                    }
                }
            }
            JOINT RightCollar
            {
                OFFSET  -3.911900  19.017000  -0.467063
                CHANNELS 3 Zrotation Xrotation Yrotation
                JOINT RightShoulder
                {
                    OFFSET -10.383700   0.000019   0.000000
                    CHANNELS 3 Zrotation Xrotation Yrotation
                    JOINT RightElbow
                    {
                        OFFSET -26.662100   0.001175   0.000102
                        CHANNELS 3 Zrotation Xrotation Yrotation
                        JOINT RightWrist
                        {
                            OFFSET -28.869000   0.000016  -0.000079
                            CHANNELS 3 Zrotation Xrotation Yrotation
                            JOINT RightFinger0
                            {
                                OFFSET  -2.044660  -2.323490   3.252850
                                CHANNELS 3 Zrotation Xrotation Yrotation
                                JOINT RightFinger01
                                {
                                    OFFSET  -3.088140   0.000000   0.000000
                                    CHANNELS 3 Zrotation Xrotation Yrotation
                                    JOINT RightFinger02
                                    {
                                        OFFSET  -2.639460   0.000000   0.000000
                                        CHANNELS 3 Zrotation Xrotation Yrotation
                                        End Site
                                        {
                                            OFFSET  -2.582190   0.000000   0.000000
                                        }
                                    }
                                }
                            }
                            JOINT RightFinger1
                            {
                                OFFSET  -8.364480   0.000000   3.252850
                                CHANNELS 3 Zrotation Xrotation Yrotation
                                JOINT RightFinger11
                                {
                                    OFFSET  -4.646930   0.000000   0.000000
                                    CHANNELS 3 Zrotation Xrotation Yrotation
                                    JOINT RightFinger12
                                    {
                                        OFFSET  -2.323470   0.000000   0.000000
                                        CHANNELS 3 Zrotation Xrotation Yrotation
                                        End Site
                                        {
                                            OFFSET  -2.273050   0.000000   0.000000
                                        }
                                    }
                                }
                            }
                            JOINT RightFinger2
                            {
                                OFFSET  -8.364480   0.000000   1.078090
                                CHANNELS 3 Zrotation Xrotation Yrotation
                                JOINT RightFinger21
                                {
                                    OFFSET  -5.111620   0.000000   0.000000
                                    CHANNELS 3 Zrotation Xrotation Yrotation
                                    JOINT RightFinger22
                                    {
                                        OFFSET  -2.788160   0.000000   0.000000
                                        CHANNELS 3 Zrotation Xrotation Yrotation
                                        End Site
                                        {
                                            OFFSET  -2.727660   0.000000   0.000000
                                        }
                                    }
                                }
                            }
                            JOINT RightFinger3
                            {
                                OFFSET  -7.899780   0.000000  -1.078090
                                CHANNELS 3 Zrotation Xrotation Yrotation
                                JOINT RightFinger31
                                {
                                    OFFSET  -4.646930   0.000000   0.000000
                                    CHANNELS 3 Zrotation Xrotation Yrotation
                                    JOINT RightFinger32
                                    {
                                        OFFSET  -2.323470   0.000000   0.000000
                                        CHANNELS 3 Zrotation Xrotation Yrotation
                                        End Site
                                        {
                                            OFFSET  -2.273050   0.000000   0.000000
                                        }
                                    }
                                }
                            }
                            JOINT RightFinger4
                            {
                                OFFSET  -7.435090   0.000000  -3.252850
                                CHANNELS 3 Zrotation Xrotation Yrotation
                                JOINT RightFinger41
                                {
                                    OFFSET  -3.717550   0.000000   0.000000
                                    CHANNELS 3 Zrotation Xrotation Yrotation
                                    JOINT RightFinger42
                                    {
                                        OFFSET  -1.858770   0.000000   0.000000
                                        CHANNELS 3 Zrotation Xrotation Yrotation
                                        End Site
                                        {
                                            OFFSET  -1.818440   0.000000   0.000000
                                        }
                                    }
                                }
                            }
                        }
                    }
                }
            }
        }
    }
    JOINT LeftHip
    {
        OFFSET   9.783040   0.000000   0.000000
        CHANNELS 3 Zrotation Xrotation Yrotation
        JOINT LeftKnee
        {
            OFFSET   0.000032 -41.789100  -0.002222
            CHANNELS 3 Zrotation Xrotation Yrotation
            JOINT LeftAnkle
            {
                OFFSET   0.000087 -41.133200  -0.000135
                CHANNELS 3 Zrotation Xrotation Yrotation
                JOINT LeftToe
                {
                    OFFSET   0.000000  -6.358960  14.674500
                    CHANNELS 3 Zrotation Xrotation Yrotation
                    End Site
                    {
                        OFFSET   0.000000   0.000000   3.913200
                    }
                }
            }
        }
    }
    JOINT RightHip
    {
        OFFSET  -9.783040   0.000000   0.000000
        CHANNELS 3 Zrotation Xrotation Yrotation
        JOINT RightKnee
        {
            OFFSET   0.000047 -41.789100  -0.000896
            CHANNELS 3 Zrotation Xrotation Yrotation
            JOINT RightAnkle
            {
                OFFSET  -0.000117 -41.133300  -0.000248
                CHANNELS 3 Zrotation Xrotation Yrotation
                JOINT RightToe
                {
                    OFFSET   0.000000  -6.358970  14.674500
                    CHANNELS 3 Zrotation Xrotation Yrotation
                    End Site
                    {
                        OFFSET   0.000000   0.000000   3.913200
                    }
                }
            }
        }
    }
}
MOTION
Frames: 4
Frame Time:   0.016667
  0.322917  89.973900  -0.315976  -0.799562  -2.560820  -0.618604   0.027334   2.952660   0.118308   0.048653   5.905380   0.235672   1.468600  -0.018104   0.003726   2.419880  -0.036564   5.106380  -4.045860   0.080342   5.808730 -72.560800  22.308000  -2.765610  -5.652000 -10.459700 -15.025400  14.101000   1.477480   9.166170  39.525800  29.745400 -66.822700 -25.580300   0.000451   0.004071  -7.790180   0.013865   0.001864 -30.791800   7.155230 -11.804700 -25.801300  -0.004099   0.000000 -18.060900   0.001343  -0.011075 -28.490500  -0.731350   1.345220 -36.169600  -0.010778  -0.002956 -24.088900   0.012323  -0.003652 -27.568300  -0.709576   1.356880 -29.597600  -0.002701  -0.001645 -19.712000  -0.000743  -0.001497 -33.078000  -0.836577   1.282500 -49.635100   0.005432  -0.006344 -33.056900   0.000522  -0.005350   9.593300   1.978470   6.525850  69.107000   8.964410  -1.607030   3.266140 -11.330200  12.988500 -14.128500 -15.612900   8.477270 -39.352300  24.450200  63.766500  20.694300  -0.005467   0.002181   5.347120   0.000899   0.005126  22.700900   0.053632   0.128255  18.573600  -0.005060   0.014711  13.001500  -0.003500   0.000766  23.582100  -2.417360  -5.518850  23.698800  -0.007344   0.001943  15.783400  -0.003351   0.005354  27.767400  -3.374520  -6.378940  31.715200  -0.014063   0.003004  21.122300   0.001777   0.002223  35.851100  -4.239570  -5.841150  54.101200   0.002049   0.004729  36.031400   0.002175   0.002336  -0.193038   4.075550   2.566350   0.338002   0.067837  14.030400  -4.510530  -3.606400   5.492170  -0.000000   0.000000  -0.000000   2.634060   3.687540 -10.259300   0.305222   1.336240  -8.454460 -10.254300   0.157545  -0.113833   0.000000   0.000000   0.000000
  0.311011  89.973800  -0.320401  -0.800192  -2.571770  -0.628592   0.028373   2.960740   0.127005   0.050266   5.921540   0.253047   1.475800  -0.031716   0.003649   2.428320  -0.064366   5.066880  -4.076400   0.070299   5.763080 -72.612000  22.321700  -2.722890  -5.653930 -10.671800 -15.086400  14.003500   1.320480   9.227140  39.312900  29.531200 -66.633300 -25.749900   0.000376   0.004110  -7.875000   0.013865   0.001805 -30.850600   7.096530 -11.683100 -25.839300  -0.004096  -0.000000 -18.087500   0.001349  -0.011077 -28.490500  -0.805980   1.481710 -36.203200  -0.010782  -0.002938 -24.111300   0.012324  -0.003605 -27.570400  -0.782026   1.494600 -29.622300  -0.002663  -0.001622 -19.728500  -0.000750  -0.001481 -33.079500  -0.921742   1.412940 -49.641900   0.005415  -0.006318 -33.061500   0.000515  -0.005301   9.634130   1.929950   6.566290  69.134500   8.960120  -1.686680   3.155040 -11.336300  13.184000 -14.105600 -15.567800   8.426950 -39.355000  24.484300  63.808700  20.635800  -0.005478   0.002183   5.317870   0.000893   0.005072  22.717100   0.054030   0.129112  18.587000  -0.005065   0.014707  13.010900  -0.003497   0.000725  23.599000  -2.425130  -5.530750  23.715900  -0.007334   0.001904  15.794800  -0.003355   0.005335  27.773700  -3.383300  -6.393050  31.757500  -0.014079   0.002964  21.150400   0.001748   0.002195  35.883600  -4.254370  -5.850840  54.150800   0.001998   0.004682  36.064400   0.002148   0.002316  -0.186290   4.043390   2.566480   0.338003   0.115936  14.038600  -4.510380  -3.603890   5.492420  -0.000000   0.000000   0.000000   2.640000   3.692080 -10.260100   0.305137   1.337080  -8.446970 -10.262600   0.157017  -0.113288  -0.000000   0.000000   0.000000
  0.292436  89.973600  -0.327863  -0.801336  -2.596700  -0.645484   0.031589   2.979070   0.140997   0.055941   5.958190   0.280917   1.487040  -0.060778   0.003572   2.442020  -0.123427   4.998680  -4.132150   0.060256   5.694390 -72.729100  22.345400  -2.647440  -5.682040 -11.152400 -15.296500  13.858800   0.983126   9.443540  38.920900  29.131600 -66.257000 -26.083800   0.000244   0.004150  -8.041930   0.013872   0.001672 -31.007200   6.976220 -11.422300 -25.945100  -0.004088   0.000000 -18.161600   0.001365  -0.011082 -28.491200  -0.954621   1.754510 -36.267800  -0.010792  -0.002898 -24.154400   0.012326  -0.003501 -27.576500  -0.926458   1.769760 -29.678000  -0.002574  -0.001572 -19.765600  -0.000769  -0.001446 -33.092400  -1.092210   1.673260 -49.669100   0.005372  -0.006260 -33.079600   0.000500  -0.005191   9.708610   1.845920   6.638660  69.172600   8.931900  -1.823390   2.962660 -11.332300  13.594200 -14.057300 -15.430800   8.345960 -39.335500  24.534500  63.899300  20.512300  -0.005505   0.002186   5.256130   0.000872   0.004950  22.733400   0.056809   0.135112  18.600300  -0.005074   0.014698  13.020200  -0.003488   0.000630  23.625800  -2.432910  -5.542660  23.743700  -0.007309   0.001814  15.813300  -0.003367   0.005291  27.784900  -3.392080  -6.407150  31.837200  -0.014115   0.002873  21.203500   0.001682   0.002133  35.947900  -4.269170  -5.860540  54.249900   0.001887   0.004579  36.130400   0.002089   0.002275  -0.175051   4.011220   2.566600   0.337971   0.164026  14.053500  -4.510210  -3.597110   5.493010  -0.000000   0.000000   0.000000   2.649980   3.706970 -10.263300   0.304953   1.339360  -8.434580 -10.275900   0.155786  -0.109477  -0.000000   0.000000  -0.000000
  0.279969  89.974800  -0.334228  -0.802413  -2.627470  -0.659092   0.036334   3.002700   0.153477   0.064701   6.005450   0.305508   1.494330  -0.095631   0.003592   2.452130  -0.193690   4.936290  -4.190300   0.077883   5.647900 -72.896500  22.371800  -2.581350  -5.761460 -11.846200 -15.659800  13.790800   0.611075   9.851320  38.555100  28.683100 -65.744500 -26.571100   0.000094   0.004062  -8.285550   0.013905   0.001478 -31.273100   6.787710 -11.016300 -26.123500  -0.004075   0.000000 -18.286400   0.001391  -0.011095 -28.490600  -1.169820   2.152030 -36.329200  -0.010807  -0.002842 -24.195300   0.012333  -0.003353 -27.583100  -1.135090   2.170920 -29.740600  -0.002447  -0.001502 -19.807300  -0.000799  -0.001398 -33.107600  -1.336050   2.054990 -49.702000   0.005307  -0.006180 -33.101500   0.000480  -0.005032   9.786020   1.773790   6.705120  69.190300   8.779510  -1.952310   2.765970 -11.205700  14.098800 -14.002700 -15.143200   8.280340 -39.237300  24.576000  64.035700  20.310800  -0.005548   0.002166   5.155410   0.000830   0.004778  22.733200   0.113914   0.271307  18.598700  -0.005083   0.014686  13.019100  -0.003474   0.000494  23.648800  -2.392340  -5.444440  23.763200  -0.007269   0.001682  15.826300  -0.003386   0.005226  27.800100  -3.349770  -6.322940  31.908200  -0.014168   0.002742  21.250800   0.001587   0.002043  36.019500  -4.222210  -5.778260  54.350800   0.001733   0.004433  36.197600   0.002002   0.002217  -0.166603   4.052140   2.565910   0.335802   0.136099  14.068000  -4.510250  -3.582510   5.494130   0.000000   0.000000   0.000000   2.657660   3.730360 -10.270300   0.304572   1.344200  -8.424230 -10.285000   0.154350  -0.100330   0.000000   0.000000   0.000000
